PathFileType	4	(X/Y/Z)	./resultDataOpenSim/trcMotMarkerGrf/sub09/qtm-14-06.trc
DataRate	CameraRate	NumFrames	NumMarkers	Units	OrigDataRate	OrigDataStartFrame	OrigNumFrames
250.000000	250.000000	11	24	m	250.000000	62	490
Frame#	Time	L.Toe.Tip			R.Toe.Tip			L.Ankle.Lat			R.Ankle.Lat			L.Ankle.Med			R.Ankle.Med			L.Heel			R.Heel			L.Knee.Lat			R.Knee.Lat			L.Knee.Med			R.Knee.Med			L.Thigh.Upper			R.Thigh.Upper			L.ASIS			R.ASIS			V.Sacral			L.Acromium			R.Acromium			C7			L.Elbow			R.Elbow			L.Wrist.Lat			R.Wrist.Lat
		X1	Y1	Z1	X2	Y2	Z2	X3	Y3	Z3	X4	Y4	Z4	X5	Y5	Z5	X6	Y6	Z6	X7	Y7	Z7	X8	Y8	Z8	X9	Y9	Z9	X10	Y10	Z10	X11	Y11	Z11	X12	Y12	Z12	X13	Y13	Z13	X14	Y14	Z14	X15	Y15	Z15	X16	Y16	Z16	X17	Y17	Z17	X18	Y18	Z18	X19	Y19	Z19	X20	Y20	Z20	X21	Y21	Z21	X22	Y22	Z22	X23	Y23	Z23	X24	Y24	Z24

62	0.244	-1.3192151	0.09243933	-0.049628577	-0.57335049	0.038927352	0.078861279	-1.3390104	0.24872411	-0.085446852	-0.72066884	0.053980976	0.1175021	-1.3125094	0.23174585	0.0076815044	-0.71527667	0.09290339	0.025633731	-1.3983504	0.29424234	-0.033226257	-0.78970395	0.031620872	0.069794407	-0.96565921	0.42208885	-0.11683843	-0.69277276	0.50897168	0.17353735	-0.94967072	0.40873417	0.0082921653	-0.71499946	0.49506883	0.048223985	-0.93718282	0.82905312	-0.13266426	-0.89727064	0.86044709	0.23785217	-0.84493517	0.9169343	-0.083499	-0.82654422	0.9451587	0.15460224	-1.0049359	0.98612454	0.044165283	-0.8371433	1.3872462	-0.11239829	-0.85977215	1.387765	0.21479469	-0.91498938	1.4388046	0.053643611	-0.94368758	1.029965	-0.1984014	-0.99273188	1.0490375	0.29226732	-0.72167193	0.87550256	-0.18241118	-0.867764	0.80754762	0.30916602
63	0.248	-1.3052122	0.09482566	-0.050660283	-0.57335239	0.038919773	0.078746887	-1.3255717	0.25110385	-0.08525627	-0.72071526	0.054014762	0.11755847	-1.2991272	0.23367992	0.0078198162	-0.71509685	0.092980244	0.025681259	-1.3853556	0.29610345	-0.032389953	-0.78976472	0.031638425	0.069808125	-0.95219788	0.42301831	-0.11630444	-0.69046546	0.50899207	0.17389162	-0.93619085	0.40953705	0.0090725437	-0.71235058	0.49518005	0.048332901	-0.93098815	0.8301463	-0.13234008	-0.89042877	0.86236751	0.23820956	-0.83920164	0.9184448	-0.083406044	-0.82022945	0.94672706	0.15466165	-0.99899518	0.98786329	0.044370753	-0.83127077	1.3886872	-0.1123749	-0.85303321	1.389271	0.21488067	-0.9087419	1.4404621	0.054023223	-0.93803666	1.03153	-0.19736651	-0.98561071	1.0503035	0.29282973	-0.71796146	0.87465521	-0.18239372	-0.85938709	0.80917706	0.30893627
64	0.252	-1.2906665	0.096973864	-0.051611428	-0.57338105	0.038922742	0.078667765	-1.3118893	0.25312144	-0.085079054	-0.72079063	0.054050721	0.11762154	-1.2854995	0.23537654	0.0079870241	-0.71495891	0.093058359	0.025739654	-1.3721539	0.29770675	-0.032068199	-0.78985181	0.031656754	0.069813526	-0.93887391	0.42419411	-0.11575998	-0.68812175	0.50899289	0.17415441	-0.92269015	0.41046952	0.0098218397	-0.70980531	0.4952442	0.048489843	-0.92482269	0.83139743	-0.1319651	-0.88374858	0.86435164	0.23854168	-0.83352321	0.92006614	-0.08333167	-0.81385422	0.94837735	0.15462696	-0.99298602	0.98964234	0.044791124	-0.8254895	1.3902109	-0.11237698	-0.84632626	1.3908547	0.21494135	-0.90271449	1.4421543	0.054142478	-0.932581	1.0331827	-0.19644285	-0.97851033	1.0516477	0.29338363	-0.71435311	0.87388952	-0.18239814	-0.85098618	0.81090784	0.30867003
65	0.256	-1.275768	0.09884366	-0.052405999	-0.57343882	0.0389358	0.078618008	-1.2980438	0.25477684	-0.084889671	-0.72089237	0.054087114	0.1176895	-1.2716489	0.23685274	0.0081392493	-0.71485583	0.093135433	0.025810853	-1.3587284	0.29909069	-0.032327002	-0.78996398	0.031677387	0.069805638	-0.92571404	0.425585	-0.11519011	-0.68560743	0.50897507	0.17433583	-0.90925956	0.41154134	0.010560326	-0.70738071	0.49526369	0.048770037	-0.91875945	0.83278975	-0.13161329	-0.87720886	0.86638513	0.23885288	-0.82789991	0.92178946	-0.083267685	-0.80753861	0.950099	0.15456476	-0.98688726	0.99146589	0.04541722	-0.81978704	1.3918192	-0.11240089	-0.83966988	1.392513	0.21498777	-0.89677171	1.4438969	0.054070356	-0.92718153	1.0348948	-0.19562984	-0.97142871	1.0530737	0.29391982	-0.71084134	0.87321709	-0.18241824	-0.84258893	0.81274168	0.30837967
66	0.26	-1.260676	0.10039626	-0.052984227	-0.57352594	0.038961181	0.07858792	-1.2840841	0.25607411	-0.084689583	-0.72101958	0.054117896	0.1177583	-1.2576248	0.2381152	0.0082612128	-0.71478428	0.093212144	0.025896974	-1.345168	0.30018615	-0.032872841	-0.79009678	0.031700047	0.069785561	-0.91264627	0.42715677	-0.11457128	-0.68304006	0.50892734	0.17450826	-0.89597028	0.41278654	0.011336329	-0.70510002	0.4952492	0.049249758	-0.91280309	0.83431399	-0.13134098	-0.87081898	0.86845611	0.2391414	-0.82232022	0.92360626	-0.083195322	-0.80130941	0.95187457	0.15451229	-0.98077559	0.99334056	0.046077298	-0.81414825	1.3935152	-0.11243257	-0.83308356	1.3942483	0.21503185	-0.89087131	1.4456985	0.053773247	-0.92173993	1.0366932	-0.194742	-0.96436733	1.0545832	0.29443761	-0.70742523	0.87264592	-0.18244562	-0.83425228	0.81467977	0.30809167
67	0.264	-1.245469	0.10162289	-0.05331101	-0.5736402	0.038999684	0.078576312	-1.2700127	0.25701594	-0.084502336	-0.72117293	0.054138573	0.11782498	-1.2435659	0.2391407	0.0084073796	-0.71474297	0.093292881	0.026002767	-1.331596	0.30088148	-0.033322487	-0.79024219	0.031721879	0.06976059	-0.89952624	0.4288945	-0.11388654	-0.6806113	0.5088428	0.17470661	-0.88290389	0.41422264	0.012182312	-0.70295769	0.49521952	0.049912258	-0.90677975	0.8359806	-0.13109949	-0.86460921	0.87054701	0.2394032	-0.81677219	0.92551153	-0.083099776	-0.79516278	0.95368196	0.15447831	-0.97477694	0.99527412	0.046524163	-0.80854158	1.3953001	-0.11245658	-0.82657148	1.3960651	0.21507949	-0.88506434	1.4475527	0.053210108	-0.91621831	1.0386334	-0.19352829	-0.95733358	1.0561727	0.29494249	-0.70410314	0.87217902	-0.18247143	-0.82600884	0.81671471	0.30782161
68	0.268	-1.2301564	0.10253781	-0.053373128	-0.57377701	0.039049609	0.078590233	-1.2558336	0.25762184	-0.0843364	-0.72134825	0.054151696	0.11789168	-1.2297281	0.23988392	0.0086814827	-0.71472709	0.093384902	0.026134725	-1.3180423	0.30112715	-0.03354158	-0.79038901	0.031738721	0.069738099	-0.88628765	0.43079974	-0.11314673	-0.6785249	0.50874167	0.17492277	-0.8701344	0.41584963	0.013092149	-0.70091263	0.49519362	0.050638754	-0.90049219	0.83779218	-0.13079575	-0.85860332	0.87263759	0.239634	-0.81124753	0.92750181	-0.082978433	-0.78910726	0.95549708	0.15446265	-0.96887449	0.99726545	0.046810714	-0.8029501	1.3971694	-0.11246835	-0.82012098	1.3979581	0.21512892	-0.87931006	1.4494469	0.052599324	-0.91069217	1.0407116	-0.19211932	-0.95033868	1.0578363	0.29543896	-0.70086807	0.87181608	-0.18248827	-0.81783747	0.81883416	0.30755611
69	0.272	-1.2146479	0.10318188	-0.053222905	-0.57393068	0.039108905	0.078638909	-1.2415678	0.25792411	-0.084182033	-0.72153488	0.054161604	0.11796348	-1.2163074	0.24031442	0.0091652674	-0.7147312	0.093495622	0.026299213	-1.3044412	0.30094198	-0.033637056	-0.79052722	0.031748444	0.069718373	-0.87301855	0.43286499	-0.1123663	-0.67691717	0.50864802	0.17518664	-0.85760994	0.41767788	0.014031054	-0.6989369	0.49518233	0.051327089	-0.89399461	0.83972117	-0.13041804	-0.85279045	0.87471082	0.2398349	-0.80572665	0.92957238	-0.082832401	-0.78314373	0.95730022	0.1544674	-0.96293521	0.99929795	0.04722153	-0.7973971	1.3991092	-0.11247344	-0.81371474	1.3999106	0.21517555	-0.87349202	1.4513691	0.052269268	-0.90531898	1.0428645	-0.19096971	-0.94339423	1.0595672	0.29592763	-0.69771199	0.8715571	-0.18249321	-0.80968611	0.82103711	0.30726839
70	0.276	-1.1987767	0.10361671	-0.052973102	-0.57409548	0.03917667	0.078727501	-1.2272062	0.25794498	-0.084039009	-0.72172492	0.054167666	0.11804424	-1.2030544	0.2404565	0.0097978141	-0.71475616	0.093629108	0.026501413	-1.2907188	0.30035497	-0.033761163	-0.790653	0.031753881	0.069695204	-0.85985929	0.43506639	-0.11154441	-0.67568053	0.50855577	0.17557882	-0.84509448	0.41972572	0.014946316	-0.69700454	0.49518949	0.051940209	-0.88756863	0.84172411	-0.13005337	-0.84711262	0.87675054	0.24001412	-0.80016362	0.93172027	-0.082656917	-0.77720935	0.95908243	0.15449755	-0.95690714	1.0013463	0.047863507	-0.79191304	1.4010992	-0.1124788	-0.80734344	1.4019076	0.21521832	-0.86756562	1.4533145	0.052308815	-0.9002137	1.0450437	-0.19037029	-0.93651436	1.0613594	0.29641088	-0.6946308	0.87140401	-0.18248758	-0.80152245	0.82333343	0.30695001
71	0.28	-1.1824279	0.10388625	-0.052703832	-0.57426587	0.039252744	0.078853343	-1.2126697	0.25769034	-0.083942229	-0.72192036	0.054168067	0.1181355	-1.1890924	0.24040738	0.010288763	-0.71480985	0.093781831	0.026741205	-1.2768619	0.29938371	-0.033988606	-0.79076804	0.031760496	0.069662715	-0.84683237	0.43738307	-0.1107153	-0.67446271	0.50844723	0.17613446	-0.83235182	0.42200406	0.015775302	-0.6950228	0.4952224	0.052422511	-0.88139539	0.84377762	-0.12979213	-0.84149943	0.87874076	0.24018173	-0.79450602	0.93394497	-0.082445585	-0.77117719	0.96084414	0.15456267	-0.9508082	1.0033997	0.048694507	-0.78649719	1.4031229	-0.11248982	-0.80101089	1.403945	0.21526122	-0.86157129	1.4552874	0.052560419	-0.89533232	1.0472444	-0.19018471	-0.92971626	1.0632061	0.29689612	-0.69161658	0.8713566	-0.18247048	-0.79336635	0.82572057	0.30662344
72	0.284	-1.165617	0.10399366	-0.052407454	-0.57443719	0.039336412	0.079009003	-1.1978879	0.25715871	-0.083926187	-0.72212642	0.054166119	0.11823372	-1.1736289	0.24027122	0.01032745	-0.71489347	0.093942826	0.027007691	-1.2629416	0.29805205	-0.034293151	-0.79087483	0.031771142	0.069619641	-0.83379764	0.43981248	-0.10998977	-0.67295592	0.50832835	0.17681271	-0.81939293	0.42452901	0.016482709	-0.69287984	0.49529358	0.052693552	-0.87539104	0.84589069	-0.12965193	-0.83594553	0.88066862	0.24034932	-0.78875575	0.93623953	-0.082201316	-0.7649816	0.96258761	0.15467245	-0.94467795	1.0054662	0.04962524	-0.78112755	1.4051749	-0.11250848	-0.79472882	1.4060258	0.21531062	-0.85555797	1.4572897	0.052850599	-0.89041586	1.0494768	-0.18988549	-0.92300063	1.0650916	0.2973855	-0.68864949	0.87141224	-0.18243587	-0.78525819	0.82817923	0.30631905
